<?xml version="1.0" standalone="no"?><!DOCTYPE svg PUBLIC "-//W3C//DTD SVG 1.1//EN" "http://www.w3.org/Graphics/SVG/1.1/DTD/svg11.dtd"><svg t="1557398986857" class="icon" style="" viewBox="0 0 1396 1024" version="1.1" xmlns="http://www.w3.org/2000/svg" p-id="7655" xmlns:xlink="http://www.w3.org/1999/xlink" width="21.8125" height="16"><defs><style type="text/css"></style></defs><path d="M1107.781818 130.327273h-521.309091l-130.327272-130.327273h-325.818182c-74.472727 0-130.327273 55.854545-130.327273 130.327273v763.345454c0 74.472727 55.854545 130.327273 130.327273 130.327273h1005.381818c55.854545 0 93.090909-37.236364 93.090909-93.090909V251.345455c9.309091-65.163636-55.854545-121.018182-121.018182-121.018182z" fill="#00A0FF" p-id="7656"></path><path d="M1238.109091 316.509091h-875.054546c-65.163636 0-121.018182 46.545455-130.327272 102.4l-111.709091 595.781818h1033.309091c65.163636 0 121.018182-46.545455 130.327272-102.4l83.781819-446.836364c18.618182-74.472727-46.545455-148.945455-130.327273-148.945454z" fill="#28CAFF" p-id="7657"></path></svg>