<?xml version="1.0" standalone="no"?><!DOCTYPE svg PUBLIC "-//W3C//DTD SVG 1.1//EN" "http://www.w3.org/Graphics/SVG/1.1/DTD/svg11.dtd"><svg t="1557397988268" class="icon" style="" viewBox="0 0 1024 1024" version="1.1" xmlns="http://www.w3.org/2000/svg" p-id="2170" xmlns:xlink="http://www.w3.org/1999/xlink" width="16" height="16"><defs><style type="text/css"></style></defs><path d="M224.128 302.464a4.793 4.793 0 0 1-4.8-4.8v-75.328c0-2.624 2.176-4.8 4.8-4.8h373.248c2.624 0 4.8 2.112 4.8 4.8v75.392c0 2.624-2.112 4.8-4.8 4.8H224.128z m314.368 167.808c2.624 0 4.8-2.112 4.8-4.8V390.08c0-2.624-2.112-4.8-4.8-4.8H224.128a4.793 4.793 0 0 0-4.8 4.8v75.392c0 2.624 2.176 4.8 4.8 4.8h314.368z m427.2-202.112v623.296c0 40.96-33.216 74.176-74.176 74.176H132.416c-40.96 0-74.176-33.216-74.176-74.176V132.544c0.064-40.896 33.28-74.112 74.176-74.112h584.192c12.416-0.576 25.024 3.264 35.328 11.264l193.92 156.864c12.096 9.856 19.84 24.832 19.84 41.6z m-76.224 11.264l-182.72-0.064c-3.52 0-6.4-2.88-6.4-6.4V134.656H134.464v754.816h755.008V279.424zM224.128 720.896c-2.624 0-4.8 2.176-4.8 4.8v75.392c0 2.624 2.176 4.8 4.8 4.8h471.36c2.624 0 4.8-2.112 4.8-4.8v-75.392c0-2.624-2.112-4.8-4.8-4.8h-471.36z m-4.8-163.008v75.392c0 2.624 2.176 4.8 4.8 4.8h575.04c2.624 0 4.8-2.112 4.8-4.8v-75.392c0-2.624-2.176-4.8-4.8-4.8h-575.04c-2.624 0-4.8 2.176-4.8 4.8z" p-id="2171" fill="#e6e6e6"></path></svg>