<?xml version="1.0" encoding="utf-8"?>
<!-- Generator: Adobe Illustrator 16.0.0, SVG Export Plug-In . SVG Version: 6.00 Build 0)  -->
<!DOCTYPE svg PUBLIC "-//W3C//DTD SVG 1.1//EN" "http://www.w3.org/Graphics/SVG/1.1/DTD/svg11.dtd">
<svg version="1.1" id="图层_1" xmlns="http://www.w3.org/2000/svg" xmlns:xlink="http://www.w3.org/1999/xlink" x="0px" y="0px"
	 width="75.667px" height="61.333px" viewBox="0 0 75.667 61.333" enable-background="new 0 0 75.667 61.333" xml:space="preserve">
<g>
	<polygon fill="#FFFFFF" points="73.78,44 45.962,44 53.067,29.643 73.78,29.643 	"/>
	<path fill="#FFFFFF" d="M71.706,31.418h-6.574v-5.823c0,0,0.806,0.348,3.157,0.348c2.354,0,3.417-0.348,3.417-0.348V31.418z"/>
	<ellipse fill="#FFFFFF" cx="68.273" cy="19.879" rx="5.155" ry="2.062"/>
	<path fill="#FFFFFF" d="M3.834,39.881h42.673c0,0-1.812,4.064-3.81,4.064c-2.483,0-2.205-2.032-4.097-2.032
		c-1.893,0-1.719,2.032-4.159,2.032c-2.441,0-2.998-2.032-4.573-2.032c-1.574,0-2.183,2.032-4.148,2.032
		c-1.965,0-2.632-2.032-4.529-2.032c-1.9,0-2.333,2.032-4.149,2.032c-1.818,0-1.899-2.032-4.022-2.032
		c-2.122,0-2.567,2.032-4.488,2.032C6.613,43.946,3.834,39.881,3.834,39.881z"/>
	<g>
		<g>
			<path fill="#FFFFFF" d="M50.611,25.862H42.44c-1.363,0-1.428,2.71-2.54,2.71c-1.113,0-37.592,0-37.592,0
				c-1.751,7.088,1.015,8.804,1.015,8.804h43.689c0,0,2.821-7.105,4.031-10.153C51.201,26.525,51.159,25.812,50.611,25.862z
				 M9.42,33.991c0,0.375-0.227,0.678-0.508,0.678H7.387c-0.281,0-0.509-0.303-0.509-0.678v-2.032c0-0.372,0.228-0.676,0.509-0.676
				h1.524c0.281,0,0.508,0.303,0.508,0.676V33.991z M14.5,33.991c0,0.375-0.227,0.678-0.509,0.678h-1.524
				c-0.279,0-0.507-0.303-0.507-0.678v-2.032c0-0.372,0.228-0.676,0.507-0.676h1.524c0.282,0,0.509,0.303,0.509,0.676V33.991z
				 M19.579,33.991c0,0.375-0.227,0.678-0.507,0.678h-1.524c-0.281,0-0.508-0.303-0.508-0.678v-2.032
				c0-0.372,0.227-0.676,0.508-0.676h1.524c0.28,0,0.507,0.303,0.507,0.676V33.991z M44.98,34.668c-2.064,0-2.54-2.71-2.54-2.71
				h1.016c0,0,0.163,0.975,1.017,1.268v-3.487c-0.303-0.233-0.509-0.665-0.509-1.166c0-0.748,0.454-1.353,1.015-1.353
				c0.562,0,1.018,0.606,1.018,1.353c0,0.499-0.205,0.931-0.509,1.166v3.487c0.853-0.294,1.015-1.268,1.015-1.268h1.017
				C47.521,31.958,47.045,34.668,44.98,34.668z"/>
		</g>
	</g>
	<g>
		<g>
			<path fill="#FFFFFF" d="M37.334,17.89c0,0-0.651-1.661-1.922-1.661H6.455c-1.126,0-1.524,2.032-1.524,2.032l-1.523,5.418
				c0,1.123,0.683,2.032,1.523,2.032h33.53c0.84,0,1.522-0.909,1.522-2.032L37.334,17.89z M12.042,23.001
				c0,0.375-0.228,0.678-0.507,0.678H8.995c-0.28,0-0.508-0.303-0.508-0.678v-3.386c0-0.375,0.227-0.679,0.508-0.679h2.541
				c0.279,0,0.507,0.303,0.507,0.679V23.001z M19.154,23.001c0,0.375-0.227,0.678-0.507,0.678h-2.54
				c-0.28,0-0.508-0.303-0.508-0.678v-3.386c0-0.375,0.227-0.679,0.508-0.679h2.54c0.279,0,0.507,0.303,0.507,0.679V23.001z
				 M26.267,23.001c0,0.375-0.227,0.678-0.507,0.678h-2.54c-0.28,0-0.509-0.303-0.509-0.678v-3.386c0-0.375,0.227-0.679,0.509-0.679
				h2.54c0.279,0,0.507,0.303,0.507,0.679V23.001z M32.872,23.001c0,0.375-0.227,0.678-0.508,0.678h-2.54
				c-0.281,0-0.509-0.303-0.509-0.678v-3.386c0-0.375,0.227-0.679,0.509-0.679h2.54c0.281,0,0.508,0.303,0.508,0.679V23.001z"/>
		</g>
	</g>
	<path fill="#FFFFFF" d="M50.568,27.624c0,0,1.608,0.618,6.62-0.022c5.013-0.641,8.558-3.267,8.558-3.267l-0.57-0.436
		c0,0-3.412,2.363-7.956,3.03c-4.544,0.665-6.316,0.089-6.316,0.089L50.568,27.624z"/>
	<path fill="#FFFFFF" d="M71.706,20.7h-6.574v2.418c0,0,1.073,0.396,3.157,0.396c2.086,0,3.417-0.396,3.417-0.396V20.7z"/>
	<path fill="#FFFFFF" d="M71.706,24.743c0,0-1.57,0.402-3.413,0.402c-1.844,0-3.161-0.402-3.161-0.402v-0.832
		c0,0,1.645,0.45,3.157,0.45s3.417-0.45,3.417-0.45V24.743z"/>
</g>
</svg>
