<?xml version="1.0" encoding="utf-8"?>
<!-- Generator: Adobe Illustrator 16.0.0, SVG Export Plug-In . SVG Version: 6.00 Build 0)  -->
<!DOCTYPE svg PUBLIC "-//W3C//DTD SVG 1.1//EN" "http://www.w3.org/Graphics/SVG/1.1/DTD/svg11.dtd">
<svg version="1.1" id="图层_1" xmlns="http://www.w3.org/2000/svg" xmlns:xlink="http://www.w3.org/1999/xlink" x="0px" y="0px"
	 width="75.667px" height="61.333px" viewBox="0 0 75.667 61.333" enable-background="new 0 0 75.667 61.333" xml:space="preserve">
<g id="hd">
	<path fill="#FFFFFF" d="M38.607,1.226c-5.55,0-10.049,4.499-10.049,10.049c0,5.55,4.499,10.048,10.049,10.048
		c5.551,0,10.048-4.499,10.048-10.048S44.158,1.226,38.607,1.226z M38.607,15.957c-2.586,0-4.683-2.097-4.683-4.682
		c0-2.586,2.096-4.683,4.683-4.683c2.586,0,4.684,2.097,4.684,4.683C43.291,13.86,41.193,15.957,38.607,15.957z"/>
	<rect x="25.783" y="23.333" fill="#FFFFFF" width="25.384" height="5.823"/>
	<rect x="35.073" y="16.858" fill="#FFFFFF" width="7.067" height="40.223"/>
	<path fill="#FFFFFF" d="M59.485,34.488c-0.896,11.052-9.843,19.44-21.122,19.44c-11.281,0-20.225-8.391-21.121-19.44h-6.449
		c0.917,14.296,12.906,25.609,27.57,25.609c14.663,0,26.652-11.313,27.569-25.609H59.485z"/>
	<polygon fill="#FFFFFF" points="6.053,34.883 13.861,28.421 21.67,34.883 	"/>
	<polygon fill="#FFFFFF" points="54.985,34.883 62.794,28.421 70.604,34.883 	"/>
</g>
</svg>
