<?xml version="1.0" encoding="utf-8"?>
<!-- Generator: Adobe Illustrator 16.0.0, SVG Export Plug-In . SVG Version: 6.00 Build 0)  -->
<!DOCTYPE svg PUBLIC "-//W3C//DTD SVG 1.1//EN" "http://www.w3.org/Graphics/SVG/1.1/DTD/svg11.dtd">
<svg version="1.1" id="图层_1" xmlns="http://www.w3.org/2000/svg" xmlns:xlink="http://www.w3.org/1999/xlink" x="0px" y="0px"
	 width="75.667px" height="61.333px" viewBox="0 0 75.667 61.333" enable-background="new 0 0 75.667 61.333" xml:space="preserve">
<path fill="none" stroke="#FFFFFF" stroke-width="4" stroke-miterlimit="10" d="M13.362,3.663H63.77c4.517,0,8.175,3.66,8.175,8.174
	v36.785c0,4.516-3.658,8.174-8.175,8.174H13.362c-4.513,0-8.174-3.658-8.174-8.174V11.836C5.188,7.322,8.849,3.663,13.362,3.663z"/>
<path fill="#FFFFFF" d="M52.845,14.243l7.193,8.853H45.654L52.845,14.243z"/>
<path fill="#FFFFFF" d="M31.648,31.849l8.854-7.193v14.388L31.648,31.849z"/>
<path fill="#FFFFFF" d="M49.634,45.861V22.887h6.425v22.974H49.634z"/>
<path fill="none" stroke="#FFFFFF" stroke-width="6.4" stroke-miterlimit="10" d="M38.619,31.797h7.498c0,0,5.4,0.75,6.648,7.184"/>
<text transform="matrix(1 0 0 1 14.9268 26.3525)" fill="#FFFFFF" stroke="#FFFFFF" stroke-miterlimit="10" font-family="'FZLTZHK--GBK1-0'" font-size="18.4199">P</text>
</svg>
