<?xml version="1.0" encoding="iso-8859-1"?>
<!-- Generator: Adobe Illustrator 16.0.0, SVG Export Plug-In . SVG Version: 6.00 Build 0)  -->
<!DOCTYPE svg PUBLIC "-//W3C//DTD SVG 1.1//EN" "http://www.w3.org/Graphics/SVG/1.1/DTD/svg11.dtd">
<svg version="1.1" id="&#x56FE;&#x5C42;_1" xmlns="http://www.w3.org/2000/svg" xmlns:xlink="http://www.w3.org/1999/xlink" x="0px"
	 y="0px" width="75.667px" height="61.333px" viewBox="-4.438 -3.646 75.667 61.333"
	 style="enable-background:new -4.438 -3.646 75.667 61.333;" xml:space="preserve">
<path style="fill:none;stroke:#FFFFFF;stroke-width:4;stroke-miterlimit:10;" d="M8.362,0.663H58.77c4.517,0,8.175,3.66,8.175,8.174
	v36.785c0,4.515-3.658,8.174-8.175,8.174H8.362c-4.513,0-8.174-3.659-8.174-8.174V8.836C0.188,4.322,3.849,0.663,8.362,0.663z"/>
<path style="fill:#FFFFFF;" d="M40.646,6.243l7.193,8.853H33.453L40.646,6.243z"/>
<path style="fill:#FFFFFF;" d="M13.348,23.849l8.854-7.193v14.388L13.348,23.849z"/>
<path style="fill:#FFFFFF;" d="M37.434,37.861V14.887h6.426v22.974H37.434z"/>
<path style="fill:none;stroke:#FFFFFF;stroke-width:6.4;stroke-miterlimit:10;" d="M22.117,23.798h11.799
	c0,0,5.402,0.749,6.65,7.183"/>
<path style="fill:#FFFFFF;" d="M57.882,44.794c0,0.894-0.638,1.616-1.428,1.616H11.367c-0.79,0-1.428-0.723-1.428-1.616v-5.496
	c0-0.894,0.638-1.616,1.428-1.616h45.087c0.79,0,1.428,0.723,1.428,1.616V44.794z"/>
</svg>
