<?xml version="1.0" encoding="utf-8"?>
<!-- Generator: Adobe Illustrator 16.0.0, SVG Export Plug-In . SVG Version: 6.00 Build 0)  -->
<!DOCTYPE svg PUBLIC "-//W3C//DTD SVG 1.1//EN" "http://www.w3.org/Graphics/SVG/1.1/DTD/svg11.dtd">
<svg version="1.1" id="图层_1" xmlns="http://www.w3.org/2000/svg" xmlns:xlink="http://www.w3.org/1999/xlink" x="0px" y="0px"
	 width="75.667px" height="61.333px" viewBox="0 0 75.667 61.333" enable-background="new 0 0 75.667 61.333" xml:space="preserve">
<polygon fill="#FFFFFF" points="62.398,14.239 57.907,14.239 57.907,11.621 51.545,11.621 51.545,14.239 44.211,14.239 
	47.995,10.458 40.092,2.555 28.406,14.239 26.123,14.239 29.907,10.455 22.005,2.555 8.497,16.063 10.834,18.402 9.178,20.058 
	12.403,23.285 14.06,21.625 16.397,23.964 22.754,17.607 28.128,17.607 28.922,18.402 27.266,20.058 30.491,23.285 32.146,21.625 
	34.485,23.964 40.843,17.607 51.545,17.607 51.545,57.279 57.907,57.279 57.907,17.607 62.398,17.607 "/>
</svg>
