<?xml version="1.0" encoding="utf-8"?>
<!-- Generator: Adobe Illustrator 16.0.0, SVG Export Plug-In . SVG Version: 6.00 Build 0)  -->
<!DOCTYPE svg PUBLIC "-//W3C//DTD SVG 1.1//EN" "http://www.w3.org/Graphics/SVG/1.1/DTD/svg11.dtd">
<svg version="1.1" id="图层_1" xmlns="http://www.w3.org/2000/svg" xmlns:xlink="http://www.w3.org/1999/xlink" x="0px" y="0px"
	 width="75.667px" height="61.333px" viewBox="0 0 75.667 61.333" enable-background="new 0 0 75.667 61.333" xml:space="preserve">
<g id="hd_1_">
	<g>
		<polygon fill="#FFFFFF" points="29.744,22.362 25.496,29.054 21.249,22.362 		"/>
		<rect x="23.83" y="15.502" fill="#FFFFFF" width="3.333" height="8.445"/>
	</g>
	<g>
		<polygon fill="#FFFFFF" points="46.041,40.342 50.289,33.65 54.535,40.342 		"/>
		<rect x="48.623" y="38.756" fill="#FFFFFF" width="3.332" height="8.445"/>
	</g>
	<line fill="none" stroke="#FFFFFF" stroke-width="4" stroke-miterlimit="10" x1="37.825" y1="3.716" x2="37.825" y2="58.219"/>
	<g>
		<rect x="10.409" y="3.618" fill="#FFFFFF" width="4.833" height="11.25"/>
		<rect x="10.409" y="18.034" fill="#FFFFFF" width="4.833" height="11.25"/>
		<rect x="10.409" y="32.448" fill="#FFFFFF" width="4.833" height="11.247"/>
		<rect x="10.409" y="46.862" fill="#FFFFFF" width="4.833" height="11.25"/>
	</g>
	<g>
		<rect x="60.41" y="3.618" fill="#FFFFFF" width="4.832" height="11.25"/>
		<rect x="60.41" y="18.034" fill="#FFFFFF" width="4.832" height="11.25"/>
		<rect x="60.41" y="32.448" fill="#FFFFFF" width="4.832" height="11.247"/>
		<rect x="60.41" y="46.862" fill="#FFFFFF" width="4.832" height="11.25"/>
	</g>
</g>
</svg>
