<?xml version="1.0" encoding="iso-8859-1"?>
<!-- Generator: Adobe Illustrator 16.0.0, SVG Export Plug-In . SVG Version: 6.00 Build 0)  -->
<!DOCTYPE svg PUBLIC "-//W3C//DTD SVG 1.1//EN" "http://www.w3.org/Graphics/SVG/1.1/DTD/svg11.dtd">
<svg version="1.1" id="&#x56FE;&#x5C42;_1" xmlns="http://www.w3.org/2000/svg" xmlns:xlink="http://www.w3.org/1999/xlink" x="0px"
	 y="0px" width="75.667px" height="61.333px" viewBox="-4.438 -3.646 75.667 61.333"
	 style="enable-background:new -4.438 -3.646 75.667 61.333;" xml:space="preserve">
<path style="fill-rule:evenodd;clip-rule:evenodd;fill:#FFFFFF;" d="M66.53,0.39H32.057c-1.464,0-2.652,1.287-2.652,2.874v20.113
	c0,1.587,1.188,2.874,2.652,2.874H66.53c1.464,0,2.65-1.286,2.65-2.874V3.264C69.181,1.677,67.994,0.39,66.53,0.39z M61.118,19.567
	h-23.64c-1.099,0-1.987-0.891-1.987-1.988s0.889-1.989,1.987-1.989h23.64c1.097,0,1.988,0.891,1.988,1.989
	S62.215,19.567,61.118,19.567z M61.118,11.038h-23.64c-1.099,0-1.987-0.89-1.987-1.987c0-1.093,0.889-1.978,1.987-1.978h23.64
	c1.097,0,1.988,0.885,1.988,1.978C63.106,10.147,62.215,11.038,61.118,11.038z"/>
<path style="fill-rule:evenodd;clip-rule:evenodd;fill:#FFFFFF;" d="M-3.098,15.205h9.419l16.145,21.354h-9.419L-3.098,15.205z"/>
<path style="fill-rule:evenodd;clip-rule:evenodd;fill:#FFFFFF;" d="M14.42,38.498h9.417L33.36,51.9h-9.422L14.42,38.498z"/>
<path style="fill-rule:evenodd;clip-rule:evenodd;fill:#FFFFFF;" d="M30.179,22.217l5.912,2.572l-11.323,8.146L30.179,22.217z"/>
</svg>
