<?xml version="1.0" encoding="utf-8"?>
<!-- Generator: Adobe Illustrator 21.0.0, SVG Export Plug-In . SVG Version: 6.00 Build 0)  -->
<svg version="1.1" id="图层_1" xmlns="http://www.w3.org/2000/svg" xmlns:xlink="http://www.w3.org/1999/xlink" x="0px" y="0px"
	 viewBox="0 0 200 200" style="enable-background:new 0 0 200 200;" xml:space="preserve">
<style type="text/css">
	.st0{fill:#FFFFFF;}
</style>
<g>
	<polygon class="st0" points="25.4,79.3 10.5,135.4 127.5,166.9 171.5,118.7 	"/>
	<path class="st0" d="M71.5,86.8l52.8,9.7c2.3,0.4,4.5-1.1,4.9-3.4l0.2-1.2c0.4-2.3-1.2-4.4-3.6-4.8L103.3,83
		c0.1-0.4,0.2-0.8,0.2-1.2l0.4-69.2c0,0-2.4-5-5.2-5.1c-2.8,0-5.1,2.2-5.1,4.9l-0.4,68.7l-20.1-3.7c-2.3-0.4-4.5,1.1-4.9,3.4L68,82
		C67.6,84.2,69.2,86.4,71.5,86.8z"/>
	<polygon class="st0" points="164.4,133.6 142.3,158.3 166.4,164.8 174,136.2 	"/>
	<polygon class="st0" points="178.9,137.5 171.3,166.1 179.6,173.6 189.8,135.2 	"/>
</g>
</svg>
