<?xml version="1.0" encoding="utf-8"?>
<!-- Generator: Adobe Illustrator 21.0.0, SVG Export Plug-In . SVG Version: 6.00 Build 0)  -->
<svg version="1.1" id="图层_1" xmlns="http://www.w3.org/2000/svg" xmlns:xlink="http://www.w3.org/1999/xlink" x="0px" y="0px"
	 viewBox="0 0 200 200" style="enable-background:new 0 0 200 200;" xml:space="preserve">
<style type="text/css">
	.st0{fill:#98E1FA;}
</style>
<g>
	<path class="st0" d="M179.5,51.6c0,0.7,0,1.3,0,1.9c0,33.2,0,66.3,0,99.5c0,1.2,0.3,1.6,1.5,1.5c1.9-0.1,3.9,0,5.9,0
		c0,1.8,0,3.5,0,5.3c-40.9,0-81.9,0-123,0c0-1.5-0.1-2.9,0-4.3c0-0.3,0.6-0.9,1-0.9c1.8-0.1,3.7-0.1,5.6,0c1,0.1,1.3-0.3,1.3-1.2
		c0-0.6,0-1.2,0-1.9c0-32.7,0-65.5,0-98.2c0-1.8,0-1.8,1.8-1.8c34.8,0,69.5,0,104.3,0C178.4,51.5,178.9,51.5,179.5,51.6z
		 M84.8,118.7c0.3,0,0.5,0.1,0.7,0.1c11.2,0,22.4,0,33.6,0c1,0,1.2-0.4,1.2-1.3c0-10.7,0-21.5,0-32.2c0-1.6,0-1.6-1.6-1.6
		c-10.8,0-21.7,0-32.5,0c-0.4,0-0.9,0-1.4,0.1C84.8,95.4,84.8,107,84.8,118.7z M166.2,83.6c-0.5,0-1,0-1.4,0c-10.6,0-21.2,0-31.9,0
		c-1.8,0-1.8,0-1.8,1.8c0,10.6,0,21.2,0,31.7c0,1.6,0.1,1.7,1.7,1.7c10.7,0,21.4,0,32.1,0c0.4,0,0.8,0,1.3,0
		C166.2,107.1,166.2,95.4,166.2,83.6z"/>
	<path class="st0" d="M196,44.1c0,1.6,0,3.2,0,4.7c0,0.2-0.4,0.6-0.7,0.6c-0.4,0.1-0.8,0-1.2,0c-49.4,0-98.8,0-148.3,0
		c-1.2,0-1.6-0.4-1.6-1.6c0-4.6-0.3-3.8,3.7-3.8c48.8,0,97.7,0,146.5,0C194.8,44.1,195.3,44.1,196,44.1z"/>
	<path class="st0" d="M52,58.1c0-2.2,0-4.3,0-6.5c5,0,9.8,0,14.8,0c0,2.1,0,4.3,0,6.5C61.9,58.1,57,58.1,52,58.1z"/>
	<path class="st0" d="M114.1,89.1c0.6,0.6,0.4,1-0.1,1.5c-4.3,4.3-8.6,8.5-12.9,12.8c-3.3,3.3-6.5,6.6-9.8,9.9
		c-0.2,0.2-0.6,0.4-0.9,0.5c-0.1-0.1-0.2-0.3-0.3-0.4c0.7-0.8,1.3-1.6,2-2.3c7.2-7.3,14.5-14.5,21.8-21.8
		C113.9,89.3,114,89.2,114.1,89.1z"/>
	<path class="st0" d="M109.9,97.1c-0.1,0.4-0.1,1-0.3,1.2c-1.3,1.3-2.6,2.4-3.9,3.7c-0.7,0.7-1.2,1.5-1.9,2.2
		c-0.8,0.8-1.6,1.5-2.4,2.2c-0.6,0.6-1.2,1.2-1.8,1.8c-0.4,0.3-0.7,0.6-1.1,0.9c-0.1-0.1-0.3-0.2-0.4-0.3c0.1-0.3,0-0.7,0.2-0.9
		c2.9-2.9,5.8-5.9,8.7-8.8c0.8-0.8,1.8-1.5,2.7-2.2C109.7,97,109.8,97.1,109.9,97.1z"/>
	<path class="st0" d="M107,93.9c-4.1,4.1-7.9,8-11.8,11.9c-0.4-0.5-0.3-1,0.2-1.5c3.3-3.3,6.6-6.7,10-9.9
		C105.8,94.1,106.3,94.1,107,93.9z"/>
	<path class="st0" d="M136.7,114c-0.2-1-0.1-1.5,0.7-1.9c0.9-0.5,1.5-1.5,2.2-2.3c0.5-0.6,1-1.2,1.5-1.7c0.7-0.6,1.5-1.2,2.2-1.8
		c0.8-0.7,1.5-1.6,2.2-2.4c0.5-0.6,1-1.2,1.6-1.8c1.2-1.1,2.5-2.2,3.7-3.4c0.8-0.7,1.4-1.6,2.1-2.4c0.7-0.7,1.4-1.3,2.1-1.9
		c0.7-0.6,1.3-1.3,2-1.9c1.1-1.1,2.2-2.3,3.4-3.5c0.3,0.3,0.5,0.6,0.6,0.7c-0.8,0.9-1.6,1.7-2.3,2.5c-0.7,0.7-1.3,1.4-2,2.1
		c-0.8,0.9-1.7,1.7-2.6,2.6c-0.8,0.7-1.7,1.4-2.4,2.1s-1.3,1.4-1.9,2.1c-0.7,0.7-1.4,1.5-2.1,2.2c-0.8,0.8-1.6,1.7-2.5,2.5
		c-0.8,0.7-1.6,1.4-2.4,2.1c-0.7,0.7-1.3,1.4-1.9,2.1c-0.7,0.8-1.5,1.5-2.3,2.3c-0.2,0.2-0.5,0.5-0.7,0.7
		C137.6,113.3,137.2,113.6,136.7,114z"/>
	<path class="st0" d="M153,94c-0.2,0.4-0.2,0.9-0.5,1.2c-1.8,1.8-3.6,3.5-5.4,5.2c-1.6,1.6-3.1,3.2-4.7,4.8
		c-0.3,0.3-0.9,0.2-1.3,0.2c0.1-0.3,0.2-0.6,0.5-0.8c3.3-3.3,6.5-6.6,9.8-9.9c0.4-0.4,0.9-0.6,1.3-0.9C152.8,93.9,152.9,94,153,94z"
		/>
	<path class="st0" d="M145.2,109.3c-0.3-0.4-0.5-0.7-0.6-1c0.9-1,1.7-2,2.6-2.9c0.8-0.8,1.7-1.4,2.4-2.1s1.2-1.4,1.9-2.1
		c0.5-0.5,1-1.1,1.5-1.6c1-0.9,2-1.8,3-2.6c0.1,0.1,0.3,0.2,0.4,0.3c-0.2,0.4-0.3,0.8-0.5,1.1c-0.6,0.7-1.2,1.3-1.9,2
		c-0.8,0.7-1.6,1.4-2.4,2.2c-0.7,0.7-1.1,1.5-1.8,2.2c-1.2,1.2-2.6,2.4-3.9,3.6C145.6,108.6,145.5,108.9,145.2,109.3z"/>
	<path class="st0" d="M52,59.2c0,4.1,3.3,7.4,7.4,7.4s7.4-3.3,7.4-7.4C66.8,59.2,52,59.2,52,59.2z M58.5,64.9c-1.1,0-2-0.9-2-2
		c0-1.1,0.9-2,2-2s2,0.9,2,2C60.6,64,59.7,64.9,58.5,64.9z"/>
</g>
<g>
	<path class="st0" d="M29.5,137.9c-3.3,3.5-6.2,6.2-9.1,9.4c-1.4-1.5-4.6-4.5-4.6-4.5l-13,12.1c0,0-0.5-0.4-0.6-0.6
		c1.1-1.2,12.3-12.8,12.3-12.8l-0.6-0.8c0,0,4.5-4.5,5.9-6.3c0.4-0.5,0.4-1.4,0.5-2.1c0.3-5.1,0.3-10.2,0.8-15.2
		c0.4-4.3,1.5-8.6,4.1-12.1c2.3-3.1,5.1-5.5,9.6-4.6c-1.1,4.3,0.7,8.3,3.5,11.5c0.7,0.4,0,0,0,0s0.9-4.2,1.3-6.2c0.8,0,1.7,0,2.7,0
		c0.4,1.9,0.8,3.7,1.3,6c3.3-3.3,4-7,3.3-11.1c3.2-1.5,8.1,1.7,9.8,4.8c3.6,6.5,4.6,13.5,4.5,20.7c0,3.3-0.1,6.6-0.1,10
		c0,1.6-1.7,3.3-3.2,3.3c-1.6,0-3-1.5-3-3.4c-0.1-5.2-0.1-10.3-0.4-15.5c-0.1-2.5-0.8-4.9-1.3-7.4c-0.1-0.6-0.5-1.1-0.8-1.6
		c0,0-0.4-0.4-0.5-0.4c-0.2,0.1-0.1,0.5-0.1,0.5c0.1,1.6,0.3,3.1,0.3,4.7c0,18,0,36.1,0,54.1c0,1.4-0.5,2.9-1.3,4.1
		c-1.1,1.7-2.8,2.8-5.1,2.1c-2.2-0.7-3.7-2.7-3.7-5.1c0-11.5,0-22.9,0-34.4c0-0.6,0.2-1.3-0.1-1.8c-0.2-0.4-0.8-0.8-1.3-0.8
		c-0.3,0-0.8,0.6-0.8,1c-0.1,0.8,0.1,1.6,0.1,2.4c0,10.7,0,21.4,0,32.2c0,1.2-0.1,2.5-0.6,3.6c-1.2,2.5-3.4,3.6-5.3,3.1
		c-2.6-0.7-4.2-3-4.2-5.7c0-10.1,0-20.1,0-30.2C29.5,140.1,29.5,139.3,29.5,137.9z M28.8,129.7c0.2,0,0.5-0.1,0.7-0.1
		c0-5.7,0-11.4,0-17.1c0-0.3-0.2-0.8-0.6-0.8s-0.7,0.5-0.8,0.9c-0.5,4.4-0.9,8.8-1.5,13.1C26.4,127.6,27.4,128.7,28.8,129.7z
		 M23.3,141.3l-4.1-3.5l-2.2,2.4l4,3.6L23.3,141.3z"/>
	<path class="st0" d="M50.9,79.3c-4.9-7.6-17-7.6-21.2,1.2c-1,2.1-0.5,3.3,1.9,4c0,1.6,0,3,0,4.4c-0.1,3.8,2.1,6.1,5.1,7.8
		c3.6,1.9,7.2,1.2,10.2-1.5c2.4-2.2,3.4-5.1,2.8-8.4c-0.3-1.4-0.4-2.5,1.5-2.7c0.4-0.1,1-1,0.9-1.4C51.8,81.5,51.5,80.3,50.9,79.3z
		 M40.4,75.2c1,0,1.8,0.8,1.8,1.8s-0.8,1.8-1.8,1.8S38.6,78,38.6,77C38.6,76,39.4,75.2,40.4,75.2z M31.1,83.4c2.1-3,6.9-3.6,9-3.6
		s8.3,0.5,9.5,3.5C43.3,80.9,37.4,81,31.1,83.4z"/>
	<path class="st0" d="M39,100.3c1.2,0,3.3,0,3.3,0l-0.3,3.5h-2.6C39.4,103.8,39.1,101.5,39,100.3z"/>
</g>
</svg>
