<?xml version="1.0" encoding="utf-8"?>
<!-- Generator: Adobe Illustrator 21.0.0, SVG Export Plug-In . SVG Version: 6.00 Build 0)  -->
<svg version="1.1" id="图层_1" xmlns="http://www.w3.org/2000/svg" xmlns:xlink="http://www.w3.org/1999/xlink" x="0px" y="0px"
	 viewBox="0 0 200 200" style="enable-background:new 0 0 200 200;" xml:space="preserve">
<style type="text/css">
	.st0{fill:#98E1FA;}
</style>
<g>
	<path class="st0" d="M130.7,118c5-6,8.1-12.8,9.1-20.5c0.8-5.9,0.3-11.8-1.5-17.5c-0.4-1.3-0.9-1.7-2.3-1.7
		c-12.1,0.1-24.1,0-36.2,0s-24.2,0-36.3,0c-1.1,0-1.8,0.2-2.1,1.4c-0.4,1.8-1,3.5-1.3,5.3c-1,6-0.8,11.9,0.8,17.8
		c1.4,4.9,3.6,9.5,6.7,13.5c5.6,7.3,12.9,12.2,21.8,14.7c7.7,2.1,15.3,1.9,22.8-0.6C119.5,128,125.8,123.9,130.7,118z"/>
	<path class="st0" d="M64.9,73c11.6-0.1,23.2,0,34.9,0c11.8,0,23.6,0,35.4,0c3.1,0,5.6-1.2,7-3.8c2.1-4.1,3.7-8.4,5.4-12.7
		c0.7-1.7-0.6-4.2-2.4-5c-3.5-1.5-7.1-2.9-10.7-4.4c-3.4-1.3-6.7-2.6-10.1-4c-4.2-1.8-8.5-3.2-13.2-3.2c-7.5,0-15.1-0.1-22.6,0.1
		c-2.9,0.1-5.8,0.5-8.5,1.4c-8.1,3-16.1,6.3-24.2,9.4c-3.2,1.3-4.6,4.2-3.4,6.9c1.4,3.2,2.9,6.4,4.2,9.7
		C57.8,70.5,61.1,73.1,64.9,73z M87.4,46.4c0.8-0.8,1.6-1.7,2.5-2.5c0.2-0.2,0.9-0.2,1.1,0c2.7,2.3,3.7,2.3,6.8,0.4
		c0.4-0.3,0.8-0.6,1.3-0.7c0.5-0.1,1.1-0.2,1.5,0c1,0.4,1.9,1,2.8,1.5c1.9,1.1,3.4,0.9,4.9-0.7c0.8-0.9,1.3-1.1,2,0
		c0.1,0.2,0.3,0.2,0.4,0.4c0.7,0.7,1.7,1.3,1.9,2.1c0.1,0.7-0.7,1.7-1.1,2.5c-1,1.9-0.3,3.7,0.2,5.4c1,3.5-0.1,6.5-2.2,9.2
		c-2.2,2.9-5.4,4.6-8.5,6.2c-0.5,0.3-1.3,0.4-1.8,0.1c-4-1.9-7.8-4.1-10-8.2c-0.8-1.5-1.8-3.3-1.8-4.9c0-1.6,0.5-2.1,0.8-3
		C89,52,89,49.9,87.3,48C86.7,47.4,86.8,46.9,87.4,46.4z"/>
	<path class="st0" d="M179.7,132.6c-1.6-0.6-3.5,0.4-4.3,2.3c-2.6,5.6-5.8,10.9-9.6,15.7c-10.4,13.4-23.7,22.8-39.8,28.2
		c-8.6,2.9-17.5,4.2-26.5,4.1c-8.1-0.1-16.1-1.2-23.9-3.7c-8.9-2.8-17.1-6.9-24.6-12.4c-11.6-8.5-20.4-19.2-26.4-32.3
		c-0.8-1.7-3.2-2.8-4.8-1.9c-1.7,1-2.8,2.9-1.9,4.3c2.9,5.1,5.4,10.5,8.8,15.3c6.7,9.6,15.2,17.5,25.2,23.8
		c8.8,5.6,18.2,9.5,28.3,11.8c6.5,1.5,13.2,2.3,19.9,2.3c3.8-0.3,7.6-0.3,11.3-0.9c5.1-0.8,10.3-1.8,15.2-3.2
		c8.4-2.5,16.2-6.3,23.5-11.2c5.6-3.8,10.7-8,15.4-12.9c6-6.3,11-13.5,15-21.2c0.7-1.3,1.3-2.6,1.8-4
		C182.9,135.2,181.8,133.4,179.7,132.6z"/>
	<path class="st0" d="M20.5,67.5c1.4,0.4,3.4-0.8,4.2-2.5c3.1-6.7,7-12.9,11.8-18.5C45.3,36.2,56,28.3,68.6,23.1
		C76.1,20,83.9,18,92,17.3c8.5-0.7,17-0.4,25.4,1.4c5.3,1.2,10.5,2.7,15.5,4.9c8,3.5,15.4,8.1,21.9,13.9c6.8,6,12.5,12.8,17,20.6
		c1.4,2.5,2.7,5.1,4.1,7.6c0.7,1.3,2.6,2,3.8,1.6c1.6-0.5,2.8-2.1,2.8-3.8c-0.1-0.2-0.1-0.6-0.3-1c-2.5-5.6-5.6-10.8-9.2-15.7
		c-7.8-10.7-17.5-19.1-28.9-25.6c-11.1-6.3-23-9.9-35.6-11.1c-6.3-0.6-12.7-0.7-19,0.3c-5.3,0.9-10.6,1.8-15.8,3.3
		c-6.8,1.9-13.3,4.9-19.4,8.6c-6.9,4.1-13.2,9-18.8,14.7c-6.5,6.6-11.7,14-16,22.1c-0.7,1.3-1.4,2.7-1.9,4.1
		C17.2,64.8,18.7,66.9,20.5,67.5z"/>
	<path class="st0" d="M85.5,175.4c-3.2-11.7-6.3-23-9.4-34.3c-13.6,0-27.1,0-40.8,0C47.3,159.3,63.8,170.8,85.5,175.4z"/>
	<path class="st0" d="M164.9,141c-8.5,0-16.7,0-24.9,0c-4.9,0-9.7,0-14.6,0c-0.5,0-1.3,0.4-1.4,0.8c-0.7,2-1.2,4.1-1.8,6.2
		c-1.4,5.1-2.8,10.1-4.2,15.2c-1.1,4-2.2,7.9-3.3,12.2c10.6-2.1,20.1-6.1,28.7-12C152,157.4,159.2,150,164.9,141z"/>
	<path class="st0" d="M193.7,96.9c-1.6,0-3.2-0.1-4.7,0c-1.2,0.1-1.5-0.4-1.5-1.5c0.1-3.6,0-7.2,0-10.8c0-1.9-0.8-2.7-2.7-2.7
		c-1.1,0-2.3,0-3.4,0c-1.8,0.1-2.6,0.8-2.6,2.7c0,1.8,0,3.6,0,5.5l0,0c0,1.7-0.1,3.5,0,5.2c0.1,1.5-0.5,1.9-1.9,1.8s-2.9,0-4.3,0
		c-1.9,0-2.2,0.7-1.3,2.2c2,3.4,3.9,6.9,5.9,10.3c1.5,2.6,2.9,5.2,4.4,7.7c1,1.6,1.9,1.6,2.8,0c1.3-2.2,2.6-4.5,3.9-6.7
		c2.2-3.8,4.5-7.6,6.6-11.5C195.8,97.6,195.3,97,193.7,96.9z"/>
	<path class="st0" d="M21.3,115.6c0-1.8,0-3.6,0-5.5l0,0c0-1.9,0-3.7,0-5.6c0-1,0.4-1.3,1.3-1.3c1.7,0.1,3.3,0.1,5,0
		c1.6,0,2-0.7,1.2-2.2c-2-3.5-4-6.9-6-10.4c-1.5-2.5-2.9-5.1-4.4-7.6c-1-1.7-1.9-1.8-2.9-0.1c-1.3,2.2-2.6,4.4-3.9,6.7
		c-2.1,3.7-4.3,7.4-6.4,11.1c-1.1,1.8-0.7,2.5,1.5,2.5c1.4,0,2.9,0.1,4.3,0c1.2-0.1,1.6,0.3,1.6,1.6c-0.1,3.5,0,7.1,0,10.6
		c0,2,0.8,2.8,2.8,2.8c1.1,0,2.2,0,3.2,0C20.5,118.2,21.2,117.5,21.3,115.6z"/>
	<path class="st0" d="M106.7,154.7c-0.1-0.9-0.4-1.3-1.4-1.3c-3.5,0.1-7,0.1-10.5,0c-0.8,0-1.2,0.2-1.3,1.1c-0.5,5-1.1,10-1.7,14.9
		c-0.3,2.2-0.5,4.4-0.8,6.8c6.1,0,12,0,18.1,0c-0.2-1.7-0.4-3.2-0.5-4.6C107.9,166,107.3,160.4,106.7,154.7z"/>
	<path class="st0" d="M89.4,140.4c0,0.1-0.1,0.3,0,0.3c1.3,3.1,2.6,6.3,4,9.4c0.2,0.4,0.9,0.7,1.3,0.7c3.2,0.1,6.5-0.1,9.7,0.1
		c1.7,0.1,2.5-0.4,3-2c0.3-1.1,0.9-2.1,1.3-3.1c0.7-1.8,1.5-3.6,2.2-5.5C103.6,140.4,96.5,140.4,89.4,140.4z"/>
	<path class="st0" d="M93.5,55.7c2.1,1.3,2.4,3.1,1.8,5.3c-0.2,0.7-0.3,1.5-0.5,2.4c1.5-0.8,2.8-1.5,4.2-2.1c0.5-0.2,1.1-0.2,1.6,0
		c1.4,0.6,2.6,1.3,4.2,2c-0.3-1.6-0.6-2.9-0.7-4.3c-0.1-0.6,0.1-1.4,0.5-1.9c0.9-1.1,2-2.1,3.1-3.3c-1.2-0.2-2.3-0.3-3.4-0.5
		c-1.2-0.1-2.3-0.3-2.8-1.8c-0.3-1.1-1.1-2.2-1.7-3.4c-0.6,1.2-1.3,2.3-1.8,3.5c-0.4,1-1,1.6-2.1,1.7c-1.3,0.1-2.6,0.4-4.2,0.6
		C92.5,54.7,92.9,55.3,93.5,55.7z"/>
</g>
</svg>
